<svg width="389" height="113" viewBox="0 0 389 113" fill="none" xmlns="http://www.w3.org/2000/svg">
<line x1="6.99979" y1="81.5244" x2="180" y2="81.5" stroke="#3300FF" stroke-width="3"/>
<line x1="7" y1="71.5" x2="180" y2="71.5" stroke="#E8FF16" stroke-width="3"/>
<line x1="7" y1="62.5" x2="180" y2="62.5" stroke="#FF0202" stroke-width="3"/>
<path d="M2.46 12H12.18C15.46 12 17.92 12.88 19.56 14.64C21.2 16.4 22.02 18.98 22.02 22.38V26.52C22.02 29.92 21.2 32.5 19.56 34.26C17.92 36.02 15.46 36.9 12.18 36.9H9.06V54H2.46V12ZM12.18 30.9C13.26 30.9 14.06 30.6 14.58 30C15.14 29.4 15.42 28.38 15.42 26.94V21.96C15.42 20.52 15.14 19.5 14.58 18.9C14.06 18.3 13.26 18 12.18 18H9.06V30.9H12.18ZM35.1445 54.6C31.9045 54.6 29.4245 53.68 27.7045 51.84C25.9845 50 25.1245 47.4 25.1245 44.04V21.96C25.1245 18.6 25.9845 16 27.7045 14.16C29.4245 12.32 31.9045 11.4 35.1445 11.4C38.3845 11.4 40.8645 12.32 42.5845 14.16C44.3045 16 45.1645 18.6 45.1645 21.96V44.04C45.1645 47.4 44.3045 50 42.5845 51.84C40.8645 53.68 38.3845 54.6 35.1445 54.6ZM35.1445 48.6C37.4245 48.6 38.5645 47.22 38.5645 44.46V21.54C38.5645 18.78 37.4245 17.4 35.1445 17.4C32.8645 17.4 31.7245 18.78 31.7245 21.54V44.46C31.7245 47.22 32.8645 48.6 35.1445 48.6ZM59.228 54.6C56.028 54.6 53.588 53.7 51.908 51.9C50.228 50.06 49.388 47.44 49.388 44.04V12H55.988V44.52C55.988 45.96 56.268 47 56.828 47.64C57.428 48.28 58.268 48.6 59.348 48.6C60.428 48.6 61.248 48.28 61.808 47.64C62.408 47 62.708 45.96 62.708 44.52V12H69.068V44.04C69.068 47.44 68.228 50.06 66.548 51.9C64.868 53.7 62.428 54.6 59.228 54.6ZM73.7686 12H82.0486L88.4686 37.14H88.5886V12H94.4686V54H87.6886L79.7686 23.34H79.6486V54H73.7686V12ZM99.3741 12H109.454C112.734 12 115.194 12.88 116.834 14.64C118.474 16.4 119.294 18.98 119.294 22.38V43.62C119.294 47.02 118.474 49.6 116.834 51.36C115.194 53.12 112.734 54 109.454 54H99.3741V12ZM109.334 48C110.414 48 111.234 47.68 111.794 47.04C112.394 46.4 112.694 45.36 112.694 43.92V22.08C112.694 20.64 112.394 19.6 111.794 18.96C111.234 18.32 110.414 18 109.334 18H105.974V48H109.334ZM133.358 12H150.818V18H139.958V29.7H148.478V35.7H139.958V54H133.358V12ZM163.523 54.6C160.283 54.6 157.803 53.68 156.083 51.84C154.363 50 153.503 47.4 153.503 44.04V21.96C153.503 18.6 154.363 16 156.083 14.16C157.803 12.32 160.283 11.4 163.523 11.4C166.763 11.4 169.243 12.32 170.963 14.16C172.683 16 173.543 18.6 173.543 21.96V44.04C173.543 47.4 172.683 50 170.963 51.84C169.243 53.68 166.763 54.6 163.523 54.6ZM163.523 48.6C165.803 48.6 166.943 47.22 166.943 44.46V21.54C166.943 18.78 165.803 17.4 163.523 17.4C161.243 17.4 160.103 18.78 160.103 21.54V44.46C160.103 47.22 161.243 48.6 163.523 48.6ZM178.007 12H187.787C191.187 12 193.667 12.8 195.227 14.4C196.787 15.96 197.567 18.38 197.567 21.66V24.24C197.567 28.6 196.127 31.36 193.247 32.52V32.64C194.847 33.12 195.967 34.1 196.607 35.58C197.287 37.06 197.627 39.04 197.627 41.52V48.9C197.627 50.1 197.667 51.08 197.747 51.84C197.827 52.56 198.027 53.28 198.347 54H191.627C191.387 53.32 191.227 52.68 191.147 52.08C191.067 51.48 191.027 50.4 191.027 48.84V41.16C191.027 39.24 190.707 37.9 190.067 37.14C189.467 36.38 188.407 36 186.887 36H184.607V54H178.007V12ZM187.007 30C188.327 30 189.307 29.66 189.947 28.98C190.627 28.3 190.967 27.16 190.967 25.56V22.32C190.967 20.8 190.687 19.7 190.127 19.02C189.607 18.34 188.767 18 187.607 18H184.607V30H187.007ZM211.815 12H221.535C224.815 12 227.275 12.88 228.915 14.64C230.555 16.4 231.375 18.98 231.375 22.38V26.52C231.375 29.92 230.555 32.5 228.915 34.26C227.275 36.02 224.815 36.9 221.535 36.9H218.415V54H211.815V12ZM221.535 30.9C222.615 30.9 223.415 30.6 223.935 30C224.495 29.4 224.775 28.38 224.775 26.94V21.96C224.775 20.52 224.495 19.5 223.935 18.9C223.415 18.3 222.615 18 221.535 18H218.415V30.9H221.535ZM244.5 54.6C241.26 54.6 238.78 53.68 237.06 51.84C235.34 50 234.48 47.4 234.48 44.04V21.96C234.48 18.6 235.34 16 237.06 14.16C238.78 12.32 241.26 11.4 244.5 11.4C247.74 11.4 250.22 12.32 251.94 14.16C253.66 16 254.52 18.6 254.52 21.96V44.04C254.52 47.4 253.66 50 251.94 51.84C250.22 53.68 247.74 54.6 244.5 54.6ZM244.5 48.6C246.78 48.6 247.92 47.22 247.92 44.46V21.54C247.92 18.78 246.78 17.4 244.5 17.4C242.22 17.4 241.08 18.78 241.08 21.54V44.46C241.08 47.22 242.22 48.6 244.5 48.6ZM268.583 54.6C265.383 54.6 262.943 53.7 261.263 51.9C259.583 50.06 258.743 47.44 258.743 44.04V12H265.343V44.52C265.343 45.96 265.623 47 266.183 47.64C266.783 48.28 267.623 48.6 268.703 48.6C269.783 48.6 270.603 48.28 271.163 47.64C271.763 47 272.063 45.96 272.063 44.52V12H278.423V44.04C278.423 47.44 277.583 50.06 275.903 51.9C274.223 53.7 271.783 54.6 268.583 54.6ZM283.124 12H291.404L297.824 37.14H297.944V12H303.824V54H297.044L289.124 23.34H289.004V54H283.124V12ZM308.73 12H318.81C322.09 12 324.55 12.88 326.19 14.64C327.83 16.4 328.65 18.98 328.65 22.38V43.62C328.65 47.02 327.83 49.6 326.19 51.36C324.55 53.12 322.09 54 318.81 54H308.73V12ZM318.69 48C319.77 48 320.59 47.68 321.15 47.04C321.75 46.4 322.05 45.36 322.05 43.92V22.08C322.05 20.64 321.75 19.6 321.15 18.96C320.59 18.32 319.77 18 318.69 18H315.33V48H318.69Z" fill="white"/>
<path d="M188.05 63H202.6V68H193.55V77.75H200.65V82.75H193.55V98H188.05V63ZM208.238 63H213.738V98H208.238V63ZM225.157 68H219.407V63H236.407V68H230.657V98H225.157V68ZM242.07 63H248.97L254.32 83.95H254.42V63H259.32V98H253.67L247.07 72.45H246.97V98H242.07V63ZM266.407 63H281.407V68H271.907V77.25H279.457V82.25H271.907V93H281.407V98H266.407V63ZM294.819 98.5C292.152 98.5 290.136 97.75 288.769 96.25C287.402 94.7167 286.719 92.5333 286.719 89.7V87.7H291.919V90.1C291.919 92.3667 292.869 93.5 294.769 93.5C295.702 93.5 296.402 93.2333 296.869 92.7C297.369 92.1333 297.619 91.2333 297.619 90C297.619 88.5333 297.286 87.25 296.619 86.15C295.952 85.0167 294.719 83.6667 292.919 82.1C290.652 80.1 289.069 78.3 288.169 76.7C287.269 75.0667 286.819 73.2333 286.819 71.2C286.819 68.4333 287.519 66.3 288.919 64.8C290.319 63.2667 292.352 62.5 295.019 62.5C297.652 62.5 299.636 63.2667 300.969 64.8C302.336 66.3 303.019 68.4667 303.019 71.3V72.75H297.819V70.95C297.819 69.75 297.586 68.8833 297.119 68.35C296.652 67.7833 295.969 67.5 295.069 67.5C293.236 67.5 292.319 68.6167 292.319 70.85C292.319 72.1167 292.652 73.3 293.319 74.4C294.019 75.5 295.269 76.8333 297.069 78.4C299.369 80.4 300.952 82.2167 301.819 83.85C302.686 85.4833 303.119 87.4 303.119 89.6C303.119 92.4667 302.402 94.6667 300.969 96.2C299.569 97.7333 297.519 98.5 294.819 98.5ZM316.423 98.5C313.756 98.5 311.739 97.75 310.373 96.25C309.006 94.7167 308.323 92.5333 308.323 89.7V87.7H313.523V90.1C313.523 92.3667 314.473 93.5 316.373 93.5C317.306 93.5 318.006 93.2333 318.473 92.7C318.973 92.1333 319.223 91.2333 319.223 90C319.223 88.5333 318.889 87.25 318.223 86.15C317.556 85.0167 316.323 83.6667 314.523 82.1C312.256 80.1 310.673 78.3 309.773 76.7C308.873 75.0667 308.423 73.2333 308.423 71.2C308.423 68.4333 309.123 66.3 310.523 64.8C311.923 63.2667 313.956 62.5 316.623 62.5C319.256 62.5 321.239 63.2667 322.573 64.8C323.939 66.3 324.623 68.4667 324.623 71.3V72.75H319.423V70.95C319.423 69.75 319.189 68.8833 318.723 68.35C318.256 67.7833 317.573 67.5 316.673 67.5C314.839 67.5 313.923 68.6167 313.923 70.85C313.923 72.1167 314.256 73.3 314.923 74.4C315.623 75.5 316.873 76.8333 318.673 78.4C320.973 80.4 322.556 82.2167 323.423 83.85C324.289 85.4833 324.723 87.4 324.723 89.6C324.723 92.4667 324.006 94.6667 322.573 96.2C321.173 97.7333 319.123 98.5 316.423 98.5Z" fill="white"/>
</svg>
